<?xml version="1.0" encoding="utf-8" standalone="no"?>
<!DOCTYPE svg PUBLIC "-//W3C//DTD SVG 1.1//EN"
  "http://www.w3.org/Graphics/SVG/1.1/DTD/svg11.dtd">
<svg xmlns:xlink="http://www.w3.org/1999/xlink" width="856.584687pt" height="496.158819pt" viewBox="0 0 856.584687 496.158819" xmlns="http://www.w3.org/2000/svg" version="1.1">
 <metadata>
  <rdf:RDF xmlns:dc="http://purl.org/dc/elements/1.1/" xmlns:cc="http://creativecommons.org/ns#" xmlns:rdf="http://www.w3.org/1999/02/22-rdf-syntax-ns#">
   <cc:Work>
    <dc:type rdf:resource="http://purl.org/dc/dcmitype/StillImage"/>
    <dc:date>2025-02-17T10:42:52.882595</dc:date>
    <dc:format>image/svg+xml</dc:format>
    <dc:creator>
     <cc:Agent>
      <dc:title>Matplotlib v3.10.0, https://matplotlib.org/</dc:title>
     </cc:Agent>
    </dc:creator>
   </cc:Work>
  </rdf:RDF>
 </metadata>
 <defs>
  <style type="text/css">*{stroke-linejoin: round; stroke-linecap: butt}</style>
 </defs>
 <g id="figure_1">
  <g id="patch_1">
   <path d="M 0 496.158819 
L 856.584687 496.158819 
L 856.584687 0 
L 0 0 
z
" style="fill: #ffffff"/>
  </g>
  <g id="axes_1">
   <g id="patch_2">
    <path d="M 52.965625 425.892316 
L 699.845625 425.892316 
L 699.845625 37.837812 
L 52.965625 37.837812 
z
" style="fill: #ffffff"/>
   </g>
   <g id="matplotlib.axis_1">
    <g id="xtick_1">
     <g id="line2d_1">
      <path d="M 123.978181 425.892316 
L 123.978181 37.837812 
" clip-path="url(#p32414c24c6)" style="fill: none; stroke-dasharray: 2.96,1.28; stroke-dashoffset: 0; stroke: #b0b0b0; stroke-opacity: 0.7; stroke-width: 0.8"/>
     </g>
     <g id="line2d_2">
      <defs>
       <path id="m689a694f7f" d="M 0 0 
L 0 3.5 
" style="stroke: #000000; stroke-width: 0.8"/>
      </defs>
      <g>
       <use xlink:href="#m689a694f7f" x="123.978181" y="425.892316" style="stroke: #000000; stroke-width: 0.8"/>
      </g>
     </g>
     <g id="text_1">
      <!-- 2024-08 -->
      <g transform="translate(92.96271 467.810133) rotate(-45) scale(0.1 -0.1)">
       <defs>
        <path id="DejaVuSans-32" d="M 1228 531 
L 3431 531 
L 3431 0 
L 469 0 
L 469 531 
Q 828 903 1448 1529 
Q 2069 2156 2228 2338 
Q 2531 2678 2651 2914 
Q 2772 3150 2772 3378 
Q 2772 3750 2511 3984 
Q 2250 4219 1831 4219 
Q 1534 4219 1204 4116 
Q 875 4013 500 3803 
L 500 4441 
Q 881 4594 1212 4672 
Q 1544 4750 1819 4750 
Q 2544 4750 2975 4387 
Q 3406 4025 3406 3419 
Q 3406 3131 3298 2873 
Q 3191 2616 2906 2266 
Q 2828 2175 2409 1742 
Q 1991 1309 1228 531 
z
" transform="scale(0.015625)"/>
        <path id="DejaVuSans-30" d="M 2034 4250 
Q 1547 4250 1301 3770 
Q 1056 3291 1056 2328 
Q 1056 1369 1301 889 
Q 1547 409 2034 409 
Q 2525 409 2770 889 
Q 3016 1369 3016 2328 
Q 3016 3291 2770 3770 
Q 2525 4250 2034 4250 
z
M 2034 4750 
Q 2819 4750 3233 4129 
Q 3647 3509 3647 2328 
Q 3647 1150 3233 529 
Q 2819 -91 2034 -91 
Q 1250 -91 836 529 
Q 422 1150 422 2328 
Q 422 3509 836 4129 
Q 1250 4750 2034 4750 
z
" transform="scale(0.015625)"/>
        <path id="DejaVuSans-34" d="M 2419 4116 
L 825 1625 
L 2419 1625 
L 2419 4116 
z
M 2253 4666 
L 3047 4666 
L 3047 1625 
L 3713 1625 
L 3713 1100 
L 3047 1100 
L 3047 0 
L 2419 0 
L 2419 1100 
L 313 1100 
L 313 1709 
L 2253 4666 
z
" transform="scale(0.015625)"/>
        <path id="DejaVuSans-2d" d="M 313 2009 
L 1997 2009 
L 1997 1497 
L 313 1497 
L 313 2009 
z
" transform="scale(0.015625)"/>
        <path id="DejaVuSans-38" d="M 2034 2216 
Q 1584 2216 1326 1975 
Q 1069 1734 1069 1313 
Q 1069 891 1326 650 
Q 1584 409 2034 409 
Q 2484 409 2743 651 
Q 3003 894 3003 1313 
Q 3003 1734 2745 1975 
Q 2488 2216 2034 2216 
z
M 1403 2484 
Q 997 2584 770 2862 
Q 544 3141 544 3541 
Q 544 4100 942 4425 
Q 1341 4750 2034 4750 
Q 2731 4750 3128 4425 
Q 3525 4100 3525 3541 
Q 3525 3141 3298 2862 
Q 3072 2584 2669 2484 
Q 3125 2378 3379 2068 
Q 3634 1759 3634 1313 
Q 3634 634 3220 271 
Q 2806 -91 2034 -91 
Q 1263 -91 848 271 
Q 434 634 434 1313 
Q 434 1759 690 2068 
Q 947 2378 1403 2484 
z
M 1172 3481 
Q 1172 3119 1398 2916 
Q 1625 2713 2034 2713 
Q 2441 2713 2670 2916 
Q 2900 3119 2900 3481 
Q 2900 3844 2670 4047 
Q 2441 4250 2034 4250 
Q 1625 4250 1398 4047 
Q 1172 3844 1172 3481 
z
" transform="scale(0.015625)"/>
       </defs>
       <use xlink:href="#DejaVuSans-32"/>
       <use xlink:href="#DejaVuSans-30" transform="translate(63.623047 0)"/>
       <use xlink:href="#DejaVuSans-32" transform="translate(127.246094 0)"/>
       <use xlink:href="#DejaVuSans-34" transform="translate(190.869141 0)"/>
       <use xlink:href="#DejaVuSans-2d" transform="translate(254.492188 0)"/>
       <use xlink:href="#DejaVuSans-30" transform="translate(290.576172 0)"/>
       <use xlink:href="#DejaVuSans-38" transform="translate(354.199219 0)"/>
      </g>
     </g>
    </g>
    <g id="xtick_2">
     <g id="line2d_3">
      <path d="M 209.969947 425.892316 
L 209.969947 37.837812 
" clip-path="url(#p32414c24c6)" style="fill: none; stroke-dasharray: 2.96,1.28; stroke-dashoffset: 0; stroke: #b0b0b0; stroke-opacity: 0.7; stroke-width: 0.8"/>
     </g>
     <g id="line2d_4">
      <g>
       <use xlink:href="#m689a694f7f" x="209.969947" y="425.892316" style="stroke: #000000; stroke-width: 0.8"/>
      </g>
     </g>
     <g id="text_2">
      <!-- 2024-09 -->
      <g transform="translate(178.954476 467.810133) rotate(-45) scale(0.1 -0.1)">
       <defs>
        <path id="DejaVuSans-39" d="M 703 97 
L 703 672 
Q 941 559 1184 500 
Q 1428 441 1663 441 
Q 2288 441 2617 861 
Q 2947 1281 2994 2138 
Q 2813 1869 2534 1725 
Q 2256 1581 1919 1581 
Q 1219 1581 811 2004 
Q 403 2428 403 3163 
Q 403 3881 828 4315 
Q 1253 4750 1959 4750 
Q 2769 4750 3195 4129 
Q 3622 3509 3622 2328 
Q 3622 1225 3098 567 
Q 2575 -91 1691 -91 
Q 1453 -91 1209 -44 
Q 966 3 703 97 
z
M 1959 2075 
Q 2384 2075 2632 2365 
Q 2881 2656 2881 3163 
Q 2881 3666 2632 3958 
Q 2384 4250 1959 4250 
Q 1534 4250 1286 3958 
Q 1038 3666 1038 3163 
Q 1038 2656 1286 2365 
Q 1534 2075 1959 2075 
z
" transform="scale(0.015625)"/>
       </defs>
       <use xlink:href="#DejaVuSans-32"/>
       <use xlink:href="#DejaVuSans-30" transform="translate(63.623047 0)"/>
       <use xlink:href="#DejaVuSans-32" transform="translate(127.246094 0)"/>
       <use xlink:href="#DejaVuSans-34" transform="translate(190.869141 0)"/>
       <use xlink:href="#DejaVuSans-2d" transform="translate(254.492188 0)"/>
       <use xlink:href="#DejaVuSans-30" transform="translate(290.576172 0)"/>
       <use xlink:href="#DejaVuSans-39" transform="translate(354.199219 0)"/>
      </g>
     </g>
    </g>
    <g id="xtick_3">
     <g id="line2d_5">
      <path d="M 293.187786 425.892316 
L 293.187786 37.837812 
" clip-path="url(#p32414c24c6)" style="fill: none; stroke-dasharray: 2.96,1.28; stroke-dashoffset: 0; stroke: #b0b0b0; stroke-opacity: 0.7; stroke-width: 0.8"/>
     </g>
     <g id="line2d_6">
      <g>
       <use xlink:href="#m689a694f7f" x="293.187786" y="425.892316" style="stroke: #000000; stroke-width: 0.8"/>
      </g>
     </g>
     <g id="text_3">
      <!-- 2024-10 -->
      <g transform="translate(262.172315 467.810133) rotate(-45) scale(0.1 -0.1)">
       <defs>
        <path id="DejaVuSans-31" d="M 794 531 
L 1825 531 
L 1825 4091 
L 703 3866 
L 703 4441 
L 1819 4666 
L 2450 4666 
L 2450 531 
L 3481 531 
L 3481 0 
L 794 0 
L 794 531 
z
" transform="scale(0.015625)"/>
       </defs>
       <use xlink:href="#DejaVuSans-32"/>
       <use xlink:href="#DejaVuSans-30" transform="translate(63.623047 0)"/>
       <use xlink:href="#DejaVuSans-32" transform="translate(127.246094 0)"/>
       <use xlink:href="#DejaVuSans-34" transform="translate(190.869141 0)"/>
       <use xlink:href="#DejaVuSans-2d" transform="translate(254.492188 0)"/>
       <use xlink:href="#DejaVuSans-31" transform="translate(290.576172 0)"/>
       <use xlink:href="#DejaVuSans-30" transform="translate(354.199219 0)"/>
      </g>
     </g>
    </g>
    <g id="xtick_4">
     <g id="line2d_7">
      <path d="M 379.179553 425.892316 
L 379.179553 37.837812 
" clip-path="url(#p32414c24c6)" style="fill: none; stroke-dasharray: 2.96,1.28; stroke-dashoffset: 0; stroke: #b0b0b0; stroke-opacity: 0.7; stroke-width: 0.8"/>
     </g>
     <g id="line2d_8">
      <g>
       <use xlink:href="#m689a694f7f" x="379.179553" y="425.892316" style="stroke: #000000; stroke-width: 0.8"/>
      </g>
     </g>
     <g id="text_4">
      <!-- 2024-11 -->
      <g transform="translate(348.164082 467.810133) rotate(-45) scale(0.1 -0.1)">
       <use xlink:href="#DejaVuSans-32"/>
       <use xlink:href="#DejaVuSans-30" transform="translate(63.623047 0)"/>
       <use xlink:href="#DejaVuSans-32" transform="translate(127.246094 0)"/>
       <use xlink:href="#DejaVuSans-34" transform="translate(190.869141 0)"/>
       <use xlink:href="#DejaVuSans-2d" transform="translate(254.492188 0)"/>
       <use xlink:href="#DejaVuSans-31" transform="translate(290.576172 0)"/>
       <use xlink:href="#DejaVuSans-31" transform="translate(354.199219 0)"/>
      </g>
     </g>
    </g>
    <g id="xtick_5">
     <g id="line2d_9">
      <path d="M 462.397392 425.892316 
L 462.397392 37.837812 
" clip-path="url(#p32414c24c6)" style="fill: none; stroke-dasharray: 2.96,1.28; stroke-dashoffset: 0; stroke: #b0b0b0; stroke-opacity: 0.7; stroke-width: 0.8"/>
     </g>
     <g id="line2d_10">
      <g>
       <use xlink:href="#m689a694f7f" x="462.397392" y="425.892316" style="stroke: #000000; stroke-width: 0.8"/>
      </g>
     </g>
     <g id="text_5">
      <!-- 2024-12 -->
      <g transform="translate(431.381921 467.810133) rotate(-45) scale(0.1 -0.1)">
       <use xlink:href="#DejaVuSans-32"/>
       <use xlink:href="#DejaVuSans-30" transform="translate(63.623047 0)"/>
       <use xlink:href="#DejaVuSans-32" transform="translate(127.246094 0)"/>
       <use xlink:href="#DejaVuSans-34" transform="translate(190.869141 0)"/>
       <use xlink:href="#DejaVuSans-2d" transform="translate(254.492188 0)"/>
       <use xlink:href="#DejaVuSans-31" transform="translate(290.576172 0)"/>
       <use xlink:href="#DejaVuSans-32" transform="translate(354.199219 0)"/>
      </g>
     </g>
    </g>
    <g id="xtick_6">
     <g id="line2d_11">
      <path d="M 548.389158 425.892316 
L 548.389158 37.837812 
" clip-path="url(#p32414c24c6)" style="fill: none; stroke-dasharray: 2.96,1.28; stroke-dashoffset: 0; stroke: #b0b0b0; stroke-opacity: 0.7; stroke-width: 0.8"/>
     </g>
     <g id="line2d_12">
      <g>
       <use xlink:href="#m689a694f7f" x="548.389158" y="425.892316" style="stroke: #000000; stroke-width: 0.8"/>
      </g>
     </g>
     <g id="text_6">
      <!-- 2025-01 -->
      <g transform="translate(517.373687 467.810133) rotate(-45) scale(0.1 -0.1)">
       <defs>
        <path id="DejaVuSans-35" d="M 691 4666 
L 3169 4666 
L 3169 4134 
L 1269 4134 
L 1269 2991 
Q 1406 3038 1543 3061 
Q 1681 3084 1819 3084 
Q 2600 3084 3056 2656 
Q 3513 2228 3513 1497 
Q 3513 744 3044 326 
Q 2575 -91 1722 -91 
Q 1428 -91 1123 -41 
Q 819 9 494 109 
L 494 744 
Q 775 591 1075 516 
Q 1375 441 1709 441 
Q 2250 441 2565 725 
Q 2881 1009 2881 1497 
Q 2881 1984 2565 2268 
Q 2250 2553 1709 2553 
Q 1456 2553 1204 2497 
Q 953 2441 691 2322 
L 691 4666 
z
" transform="scale(0.015625)"/>
       </defs>
       <use xlink:href="#DejaVuSans-32"/>
       <use xlink:href="#DejaVuSans-30" transform="translate(63.623047 0)"/>
       <use xlink:href="#DejaVuSans-32" transform="translate(127.246094 0)"/>
       <use xlink:href="#DejaVuSans-35" transform="translate(190.869141 0)"/>
       <use xlink:href="#DejaVuSans-2d" transform="translate(254.492188 0)"/>
       <use xlink:href="#DejaVuSans-30" transform="translate(290.576172 0)"/>
       <use xlink:href="#DejaVuSans-31" transform="translate(354.199219 0)"/>
      </g>
     </g>
    </g>
    <g id="xtick_7">
     <g id="line2d_13">
      <path d="M 634.380925 425.892316 
L 634.380925 37.837812 
" clip-path="url(#p32414c24c6)" style="fill: none; stroke-dasharray: 2.96,1.28; stroke-dashoffset: 0; stroke: #b0b0b0; stroke-opacity: 0.7; stroke-width: 0.8"/>
     </g>
     <g id="line2d_14">
      <g>
       <use xlink:href="#m689a694f7f" x="634.380925" y="425.892316" style="stroke: #000000; stroke-width: 0.8"/>
      </g>
     </g>
     <g id="text_7">
      <!-- 2025-02 -->
      <g transform="translate(603.365454 467.810133) rotate(-45) scale(0.1 -0.1)">
       <use xlink:href="#DejaVuSans-32"/>
       <use xlink:href="#DejaVuSans-30" transform="translate(63.623047 0)"/>
       <use xlink:href="#DejaVuSans-32" transform="translate(127.246094 0)"/>
       <use xlink:href="#DejaVuSans-35" transform="translate(190.869141 0)"/>
       <use xlink:href="#DejaVuSans-2d" transform="translate(254.492188 0)"/>
       <use xlink:href="#DejaVuSans-30" transform="translate(290.576172 0)"/>
       <use xlink:href="#DejaVuSans-32" transform="translate(354.199219 0)"/>
      </g>
     </g>
    </g>
    <g id="text_8">
     <!-- Date -->
     <g transform="translate(364.454844 486.879131) scale(0.1 -0.1)">
      <defs>
       <path id="DejaVuSans-44" d="M 1259 4147 
L 1259 519 
L 2022 519 
Q 2988 519 3436 956 
Q 3884 1394 3884 2338 
Q 3884 3275 3436 3711 
Q 2988 4147 2022 4147 
L 1259 4147 
z
M 628 4666 
L 1925 4666 
Q 3281 4666 3915 4102 
Q 4550 3538 4550 2338 
Q 4550 1131 3912 565 
Q 3275 0 1925 0 
L 628 0 
L 628 4666 
z
" transform="scale(0.015625)"/>
       <path id="DejaVuSans-61" d="M 2194 1759 
Q 1497 1759 1228 1600 
Q 959 1441 959 1056 
Q 959 750 1161 570 
Q 1363 391 1709 391 
Q 2188 391 2477 730 
Q 2766 1069 2766 1631 
L 2766 1759 
L 2194 1759 
z
M 3341 1997 
L 3341 0 
L 2766 0 
L 2766 531 
Q 2569 213 2275 61 
Q 1981 -91 1556 -91 
Q 1019 -91 701 211 
Q 384 513 384 1019 
Q 384 1609 779 1909 
Q 1175 2209 1959 2209 
L 2766 2209 
L 2766 2266 
Q 2766 2663 2505 2880 
Q 2244 3097 1772 3097 
Q 1472 3097 1187 3025 
Q 903 2953 641 2809 
L 641 3341 
Q 956 3463 1253 3523 
Q 1550 3584 1831 3584 
Q 2591 3584 2966 3190 
Q 3341 2797 3341 1997 
z
" transform="scale(0.015625)"/>
       <path id="DejaVuSans-74" d="M 1172 4494 
L 1172 3500 
L 2356 3500 
L 2356 3053 
L 1172 3053 
L 1172 1153 
Q 1172 725 1289 603 
Q 1406 481 1766 481 
L 2356 481 
L 2356 0 
L 1766 0 
Q 1100 0 847 248 
Q 594 497 594 1153 
L 594 3053 
L 172 3053 
L 172 3500 
L 594 3500 
L 594 4494 
L 1172 4494 
z
" transform="scale(0.015625)"/>
       <path id="DejaVuSans-65" d="M 3597 1894 
L 3597 1613 
L 953 1613 
Q 991 1019 1311 708 
Q 1631 397 2203 397 
Q 2534 397 2845 478 
Q 3156 559 3463 722 
L 3463 178 
Q 3153 47 2828 -22 
Q 2503 -91 2169 -91 
Q 1331 -91 842 396 
Q 353 884 353 1716 
Q 353 2575 817 3079 
Q 1281 3584 2069 3584 
Q 2775 3584 3186 3129 
Q 3597 2675 3597 1894 
z
M 3022 2063 
Q 3016 2534 2758 2815 
Q 2500 3097 2075 3097 
Q 1594 3097 1305 2825 
Q 1016 2553 972 2059 
L 3022 2063 
z
" transform="scale(0.015625)"/>
      </defs>
      <use xlink:href="#DejaVuSans-44"/>
      <use xlink:href="#DejaVuSans-61" transform="translate(77.001953 0)"/>
      <use xlink:href="#DejaVuSans-74" transform="translate(138.28125 0)"/>
      <use xlink:href="#DejaVuSans-65" transform="translate(177.490234 0)"/>
     </g>
    </g>
   </g>
   <g id="matplotlib.axis_2">
    <g id="ytick_1">
     <g id="line2d_15">
      <path d="M 52.965625 408.253475 
L 699.845625 408.253475 
" clip-path="url(#p32414c24c6)" style="fill: none; stroke-dasharray: 2.96,1.28; stroke-dashoffset: 0; stroke: #b0b0b0; stroke-opacity: 0.7; stroke-width: 0.8"/>
     </g>
     <g id="line2d_16">
      <defs>
       <path id="mf4814df3fe" d="M 0 0 
L -3.5 0 
" style="stroke: #000000; stroke-width: 0.8"/>
      </defs>
      <g>
       <use xlink:href="#mf4814df3fe" x="52.965625" y="408.253475" style="stroke: #000000; stroke-width: 0.8"/>
      </g>
     </g>
     <g id="text_9">
      <!-- 0 -->
      <g transform="translate(39.603125 412.052693) scale(0.1 -0.1)">
       <use xlink:href="#DejaVuSans-30"/>
      </g>
     </g>
    </g>
    <g id="ytick_2">
     <g id="line2d_17">
      <path d="M 52.965625 349.359181 
L 699.845625 349.359181 
" clip-path="url(#p32414c24c6)" style="fill: none; stroke-dasharray: 2.96,1.28; stroke-dashoffset: 0; stroke: #b0b0b0; stroke-opacity: 0.7; stroke-width: 0.8"/>
     </g>
     <g id="line2d_18">
      <g>
       <use xlink:href="#mf4814df3fe" x="52.965625" y="349.359181" style="stroke: #000000; stroke-width: 0.8"/>
      </g>
     </g>
     <g id="text_10">
      <!-- 100 -->
      <g transform="translate(26.878125 353.158399) scale(0.1 -0.1)">
       <use xlink:href="#DejaVuSans-31"/>
       <use xlink:href="#DejaVuSans-30" transform="translate(63.623047 0)"/>
       <use xlink:href="#DejaVuSans-30" transform="translate(127.246094 0)"/>
      </g>
     </g>
    </g>
    <g id="ytick_3">
     <g id="line2d_19">
      <path d="M 52.965625 290.464887 
L 699.845625 290.464887 
" clip-path="url(#p32414c24c6)" style="fill: none; stroke-dasharray: 2.96,1.28; stroke-dashoffset: 0; stroke: #b0b0b0; stroke-opacity: 0.7; stroke-width: 0.8"/>
     </g>
     <g id="line2d_20">
      <g>
       <use xlink:href="#mf4814df3fe" x="52.965625" y="290.464887" style="stroke: #000000; stroke-width: 0.8"/>
      </g>
     </g>
     <g id="text_11">
      <!-- 200 -->
      <g transform="translate(26.878125 294.264105) scale(0.1 -0.1)">
       <use xlink:href="#DejaVuSans-32"/>
       <use xlink:href="#DejaVuSans-30" transform="translate(63.623047 0)"/>
       <use xlink:href="#DejaVuSans-30" transform="translate(127.246094 0)"/>
      </g>
     </g>
    </g>
    <g id="ytick_4">
     <g id="line2d_21">
      <path d="M 52.965625 231.570593 
L 699.845625 231.570593 
" clip-path="url(#p32414c24c6)" style="fill: none; stroke-dasharray: 2.96,1.28; stroke-dashoffset: 0; stroke: #b0b0b0; stroke-opacity: 0.7; stroke-width: 0.8"/>
     </g>
     <g id="line2d_22">
      <g>
       <use xlink:href="#mf4814df3fe" x="52.965625" y="231.570593" style="stroke: #000000; stroke-width: 0.8"/>
      </g>
     </g>
     <g id="text_12">
      <!-- 300 -->
      <g transform="translate(26.878125 235.369811) scale(0.1 -0.1)">
       <defs>
        <path id="DejaVuSans-33" d="M 2597 2516 
Q 3050 2419 3304 2112 
Q 3559 1806 3559 1356 
Q 3559 666 3084 287 
Q 2609 -91 1734 -91 
Q 1441 -91 1130 -33 
Q 819 25 488 141 
L 488 750 
Q 750 597 1062 519 
Q 1375 441 1716 441 
Q 2309 441 2620 675 
Q 2931 909 2931 1356 
Q 2931 1769 2642 2001 
Q 2353 2234 1838 2234 
L 1294 2234 
L 1294 2753 
L 1863 2753 
Q 2328 2753 2575 2939 
Q 2822 3125 2822 3475 
Q 2822 3834 2567 4026 
Q 2313 4219 1838 4219 
Q 1578 4219 1281 4162 
Q 984 4106 628 3988 
L 628 4550 
Q 988 4650 1302 4700 
Q 1616 4750 1894 4750 
Q 2613 4750 3031 4423 
Q 3450 4097 3450 3541 
Q 3450 3153 3228 2886 
Q 3006 2619 2597 2516 
z
" transform="scale(0.015625)"/>
       </defs>
       <use xlink:href="#DejaVuSans-33"/>
       <use xlink:href="#DejaVuSans-30" transform="translate(63.623047 0)"/>
       <use xlink:href="#DejaVuSans-30" transform="translate(127.246094 0)"/>
      </g>
     </g>
    </g>
    <g id="ytick_5">
     <g id="line2d_23">
      <path d="M 52.965625 172.676299 
L 699.845625 172.676299 
" clip-path="url(#p32414c24c6)" style="fill: none; stroke-dasharray: 2.96,1.28; stroke-dashoffset: 0; stroke: #b0b0b0; stroke-opacity: 0.7; stroke-width: 0.8"/>
     </g>
     <g id="line2d_24">
      <g>
       <use xlink:href="#mf4814df3fe" x="52.965625" y="172.676299" style="stroke: #000000; stroke-width: 0.8"/>
      </g>
     </g>
     <g id="text_13">
      <!-- 400 -->
      <g transform="translate(26.878125 176.475517) scale(0.1 -0.1)">
       <use xlink:href="#DejaVuSans-34"/>
       <use xlink:href="#DejaVuSans-30" transform="translate(63.623047 0)"/>
       <use xlink:href="#DejaVuSans-30" transform="translate(127.246094 0)"/>
      </g>
     </g>
    </g>
    <g id="ytick_6">
     <g id="line2d_25">
      <path d="M 52.965625 113.782005 
L 699.845625 113.782005 
" clip-path="url(#p32414c24c6)" style="fill: none; stroke-dasharray: 2.96,1.28; stroke-dashoffset: 0; stroke: #b0b0b0; stroke-opacity: 0.7; stroke-width: 0.8"/>
     </g>
     <g id="line2d_26">
      <g>
       <use xlink:href="#mf4814df3fe" x="52.965625" y="113.782005" style="stroke: #000000; stroke-width: 0.8"/>
      </g>
     </g>
     <g id="text_14">
      <!-- 500 -->
      <g transform="translate(26.878125 117.581223) scale(0.1 -0.1)">
       <use xlink:href="#DejaVuSans-35"/>
       <use xlink:href="#DejaVuSans-30" transform="translate(63.623047 0)"/>
       <use xlink:href="#DejaVuSans-30" transform="translate(127.246094 0)"/>
      </g>
     </g>
    </g>
    <g id="ytick_7">
     <g id="line2d_27">
      <path d="M 52.965625 54.887711 
L 699.845625 54.887711 
" clip-path="url(#p32414c24c6)" style="fill: none; stroke-dasharray: 2.96,1.28; stroke-dashoffset: 0; stroke: #b0b0b0; stroke-opacity: 0.7; stroke-width: 0.8"/>
     </g>
     <g id="line2d_28">
      <g>
       <use xlink:href="#mf4814df3fe" x="52.965625" y="54.887711" style="stroke: #000000; stroke-width: 0.8"/>
      </g>
     </g>
     <g id="text_15">
      <!-- 600 -->
      <g transform="translate(26.878125 58.686929) scale(0.1 -0.1)">
       <defs>
        <path id="DejaVuSans-36" d="M 2113 2584 
Q 1688 2584 1439 2293 
Q 1191 2003 1191 1497 
Q 1191 994 1439 701 
Q 1688 409 2113 409 
Q 2538 409 2786 701 
Q 3034 994 3034 1497 
Q 3034 2003 2786 2293 
Q 2538 2584 2113 2584 
z
M 3366 4563 
L 3366 3988 
Q 3128 4100 2886 4159 
Q 2644 4219 2406 4219 
Q 1781 4219 1451 3797 
Q 1122 3375 1075 2522 
Q 1259 2794 1537 2939 
Q 1816 3084 2150 3084 
Q 2853 3084 3261 2657 
Q 3669 2231 3669 1497 
Q 3669 778 3244 343 
Q 2819 -91 2113 -91 
Q 1303 -91 875 529 
Q 447 1150 447 2328 
Q 447 3434 972 4092 
Q 1497 4750 2381 4750 
Q 2619 4750 2861 4703 
Q 3103 4656 3366 4563 
z
" transform="scale(0.015625)"/>
       </defs>
       <use xlink:href="#DejaVuSans-36"/>
       <use xlink:href="#DejaVuSans-30" transform="translate(63.623047 0)"/>
       <use xlink:href="#DejaVuSans-30" transform="translate(127.246094 0)"/>
      </g>
     </g>
    </g>
    <g id="text_16">
     <!-- Number of Plugins -->
     <g transform="translate(14.798438 277.858033) rotate(-90) scale(0.1 -0.1)">
      <defs>
       <path id="DejaVuSans-4e" d="M 628 4666 
L 1478 4666 
L 3547 763 
L 3547 4666 
L 4159 4666 
L 4159 0 
L 3309 0 
L 1241 3903 
L 1241 0 
L 628 0 
L 628 4666 
z
" transform="scale(0.015625)"/>
       <path id="DejaVuSans-75" d="M 544 1381 
L 544 3500 
L 1119 3500 
L 1119 1403 
Q 1119 906 1312 657 
Q 1506 409 1894 409 
Q 2359 409 2629 706 
Q 2900 1003 2900 1516 
L 2900 3500 
L 3475 3500 
L 3475 0 
L 2900 0 
L 2900 538 
Q 2691 219 2414 64 
Q 2138 -91 1772 -91 
Q 1169 -91 856 284 
Q 544 659 544 1381 
z
M 1991 3584 
L 1991 3584 
z
" transform="scale(0.015625)"/>
       <path id="DejaVuSans-6d" d="M 3328 2828 
Q 3544 3216 3844 3400 
Q 4144 3584 4550 3584 
Q 5097 3584 5394 3201 
Q 5691 2819 5691 2113 
L 5691 0 
L 5113 0 
L 5113 2094 
Q 5113 2597 4934 2840 
Q 4756 3084 4391 3084 
Q 3944 3084 3684 2787 
Q 3425 2491 3425 1978 
L 3425 0 
L 2847 0 
L 2847 2094 
Q 2847 2600 2669 2842 
Q 2491 3084 2119 3084 
Q 1678 3084 1418 2786 
Q 1159 2488 1159 1978 
L 1159 0 
L 581 0 
L 581 3500 
L 1159 3500 
L 1159 2956 
Q 1356 3278 1631 3431 
Q 1906 3584 2284 3584 
Q 2666 3584 2933 3390 
Q 3200 3197 3328 2828 
z
" transform="scale(0.015625)"/>
       <path id="DejaVuSans-62" d="M 3116 1747 
Q 3116 2381 2855 2742 
Q 2594 3103 2138 3103 
Q 1681 3103 1420 2742 
Q 1159 2381 1159 1747 
Q 1159 1113 1420 752 
Q 1681 391 2138 391 
Q 2594 391 2855 752 
Q 3116 1113 3116 1747 
z
M 1159 2969 
Q 1341 3281 1617 3432 
Q 1894 3584 2278 3584 
Q 2916 3584 3314 3078 
Q 3713 2572 3713 1747 
Q 3713 922 3314 415 
Q 2916 -91 2278 -91 
Q 1894 -91 1617 61 
Q 1341 213 1159 525 
L 1159 0 
L 581 0 
L 581 4863 
L 1159 4863 
L 1159 2969 
z
" transform="scale(0.015625)"/>
       <path id="DejaVuSans-72" d="M 2631 2963 
Q 2534 3019 2420 3045 
Q 2306 3072 2169 3072 
Q 1681 3072 1420 2755 
Q 1159 2438 1159 1844 
L 1159 0 
L 581 0 
L 581 3500 
L 1159 3500 
L 1159 2956 
Q 1341 3275 1631 3429 
Q 1922 3584 2338 3584 
Q 2397 3584 2469 3576 
Q 2541 3569 2628 3553 
L 2631 2963 
z
" transform="scale(0.015625)"/>
       <path id="DejaVuSans-20" transform="scale(0.015625)"/>
       <path id="DejaVuSans-6f" d="M 1959 3097 
Q 1497 3097 1228 2736 
Q 959 2375 959 1747 
Q 959 1119 1226 758 
Q 1494 397 1959 397 
Q 2419 397 2687 759 
Q 2956 1122 2956 1747 
Q 2956 2369 2687 2733 
Q 2419 3097 1959 3097 
z
M 1959 3584 
Q 2709 3584 3137 3096 
Q 3566 2609 3566 1747 
Q 3566 888 3137 398 
Q 2709 -91 1959 -91 
Q 1206 -91 779 398 
Q 353 888 353 1747 
Q 353 2609 779 3096 
Q 1206 3584 1959 3584 
z
" transform="scale(0.015625)"/>
       <path id="DejaVuSans-66" d="M 2375 4863 
L 2375 4384 
L 1825 4384 
Q 1516 4384 1395 4259 
Q 1275 4134 1275 3809 
L 1275 3500 
L 2222 3500 
L 2222 3053 
L 1275 3053 
L 1275 0 
L 697 0 
L 697 3053 
L 147 3053 
L 147 3500 
L 697 3500 
L 697 3744 
Q 697 4328 969 4595 
Q 1241 4863 1831 4863 
L 2375 4863 
z
" transform="scale(0.015625)"/>
       <path id="DejaVuSans-50" d="M 1259 4147 
L 1259 2394 
L 2053 2394 
Q 2494 2394 2734 2622 
Q 2975 2850 2975 3272 
Q 2975 3691 2734 3919 
Q 2494 4147 2053 4147 
L 1259 4147 
z
M 628 4666 
L 2053 4666 
Q 2838 4666 3239 4311 
Q 3641 3956 3641 3272 
Q 3641 2581 3239 2228 
Q 2838 1875 2053 1875 
L 1259 1875 
L 1259 0 
L 628 0 
L 628 4666 
z
" transform="scale(0.015625)"/>
       <path id="DejaVuSans-6c" d="M 603 4863 
L 1178 4863 
L 1178 0 
L 603 0 
L 603 4863 
z
" transform="scale(0.015625)"/>
       <path id="DejaVuSans-67" d="M 2906 1791 
Q 2906 2416 2648 2759 
Q 2391 3103 1925 3103 
Q 1463 3103 1205 2759 
Q 947 2416 947 1791 
Q 947 1169 1205 825 
Q 1463 481 1925 481 
Q 2391 481 2648 825 
Q 2906 1169 2906 1791 
z
M 3481 434 
Q 3481 -459 3084 -895 
Q 2688 -1331 1869 -1331 
Q 1566 -1331 1297 -1286 
Q 1028 -1241 775 -1147 
L 775 -588 
Q 1028 -725 1275 -790 
Q 1522 -856 1778 -856 
Q 2344 -856 2625 -561 
Q 2906 -266 2906 331 
L 2906 616 
Q 2728 306 2450 153 
Q 2172 0 1784 0 
Q 1141 0 747 490 
Q 353 981 353 1791 
Q 353 2603 747 3093 
Q 1141 3584 1784 3584 
Q 2172 3584 2450 3431 
Q 2728 3278 2906 2969 
L 2906 3500 
L 3481 3500 
L 3481 434 
z
" transform="scale(0.015625)"/>
       <path id="DejaVuSans-69" d="M 603 3500 
L 1178 3500 
L 1178 0 
L 603 0 
L 603 3500 
z
M 603 4863 
L 1178 4863 
L 1178 4134 
L 603 4134 
L 603 4863 
z
" transform="scale(0.015625)"/>
       <path id="DejaVuSans-6e" d="M 3513 2113 
L 3513 0 
L 2938 0 
L 2938 2094 
Q 2938 2591 2744 2837 
Q 2550 3084 2163 3084 
Q 1697 3084 1428 2787 
Q 1159 2491 1159 1978 
L 1159 0 
L 581 0 
L 581 3500 
L 1159 3500 
L 1159 2956 
Q 1366 3272 1645 3428 
Q 1925 3584 2291 3584 
Q 2894 3584 3203 3211 
Q 3513 2838 3513 2113 
z
" transform="scale(0.015625)"/>
       <path id="DejaVuSans-73" d="M 2834 3397 
L 2834 2853 
Q 2591 2978 2328 3040 
Q 2066 3103 1784 3103 
Q 1356 3103 1142 2972 
Q 928 2841 928 2578 
Q 928 2378 1081 2264 
Q 1234 2150 1697 2047 
L 1894 2003 
Q 2506 1872 2764 1633 
Q 3022 1394 3022 966 
Q 3022 478 2636 193 
Q 2250 -91 1575 -91 
Q 1294 -91 989 -36 
Q 684 19 347 128 
L 347 722 
Q 666 556 975 473 
Q 1284 391 1588 391 
Q 1994 391 2212 530 
Q 2431 669 2431 922 
Q 2431 1156 2273 1281 
Q 2116 1406 1581 1522 
L 1381 1569 
Q 847 1681 609 1914 
Q 372 2147 372 2553 
Q 372 3047 722 3315 
Q 1072 3584 1716 3584 
Q 2034 3584 2315 3537 
Q 2597 3491 2834 3397 
z
" transform="scale(0.015625)"/>
      </defs>
      <use xlink:href="#DejaVuSans-4e"/>
      <use xlink:href="#DejaVuSans-75" transform="translate(74.804688 0)"/>
      <use xlink:href="#DejaVuSans-6d" transform="translate(138.183594 0)"/>
      <use xlink:href="#DejaVuSans-62" transform="translate(235.595703 0)"/>
      <use xlink:href="#DejaVuSans-65" transform="translate(299.072266 0)"/>
      <use xlink:href="#DejaVuSans-72" transform="translate(360.595703 0)"/>
      <use xlink:href="#DejaVuSans-20" transform="translate(401.708984 0)"/>
      <use xlink:href="#DejaVuSans-6f" transform="translate(433.496094 0)"/>
      <use xlink:href="#DejaVuSans-66" transform="translate(494.677734 0)"/>
      <use xlink:href="#DejaVuSans-20" transform="translate(529.882812 0)"/>
      <use xlink:href="#DejaVuSans-50" transform="translate(561.669922 0)"/>
      <use xlink:href="#DejaVuSans-6c" transform="translate(621.972656 0)"/>
      <use xlink:href="#DejaVuSans-75" transform="translate(649.755859 0)"/>
      <use xlink:href="#DejaVuSans-67" transform="translate(713.134766 0)"/>
      <use xlink:href="#DejaVuSans-69" transform="translate(776.611328 0)"/>
      <use xlink:href="#DejaVuSans-6e" transform="translate(804.394531 0)"/>
      <use xlink:href="#DejaVuSans-73" transform="translate(867.773438 0)"/>
     </g>
    </g>
   </g>
   <g id="line2d_29">
    <path d="M 82.369261 408.253475 
L 85.143189 408.253475 
L 87.917117 56.065596 
L 101.786757 56.654539 
L 104.560685 56.654539 
L 140.621748 56.654539 
L 160.039244 56.654539 
L 179.45674 56.654539 
L 198.874236 56.654539 
L 218.291731 56.654539 
L 237.709227 56.654539 
L 257.126723 57.243482 
L 276.544218 57.243482 
L 295.961714 57.243482 
L 315.37921 57.243482 
L 334.796706 57.243482 
L 354.214201 57.832425 
L 373.631697 58.421368 
L 393.049193 59.010311 
L 412.466688 59.010311 
L 565.032726 58.421368 
L 567.806654 59.010311 
L 587.22415 61.955026 
L 606.641646 63.132912 
L 626.059141 66.077626 
L 645.476637 67.255512 
L 662.120205 67.255512 
L 664.894133 67.844455 
L 670.441989 67.844455 
" clip-path="url(#p32414c24c6)" style="fill: none; stroke: #e74c3c; stroke-width: 1.5; stroke-linecap: square"/>
    <defs>
     <path id="m5c846e7edf" d="M 0 3 
C 0.795609 3 1.55874 2.683901 2.12132 2.12132 
C 2.683901 1.55874 3 0.795609 3 0 
C 3 -0.795609 2.683901 -1.55874 2.12132 -2.12132 
C 1.55874 -2.683901 0.795609 -3 0 -3 
C -0.795609 -3 -1.55874 -2.683901 -2.12132 -2.12132 
C -2.683901 -1.55874 -3 -0.795609 -3 0 
C -3 0.795609 -2.683901 1.55874 -2.12132 2.12132 
C -1.55874 2.683901 -0.795609 3 0 3 
z
" style="stroke: #e74c3c"/>
    </defs>
    <g clip-path="url(#p32414c24c6)">
     <use xlink:href="#m5c846e7edf" x="82.369261" y="408.253475" style="fill: #e74c3c; stroke: #e74c3c"/>
     <use xlink:href="#m5c846e7edf" x="85.143189" y="408.253475" style="fill: #e74c3c; stroke: #e74c3c"/>
     <use xlink:href="#m5c846e7edf" x="87.917117" y="56.065596" style="fill: #e74c3c; stroke: #e74c3c"/>
     <use xlink:href="#m5c846e7edf" x="101.786757" y="56.654539" style="fill: #e74c3c; stroke: #e74c3c"/>
     <use xlink:href="#m5c846e7edf" x="104.560685" y="56.654539" style="fill: #e74c3c; stroke: #e74c3c"/>
     <use xlink:href="#m5c846e7edf" x="140.621748" y="56.654539" style="fill: #e74c3c; stroke: #e74c3c"/>
     <use xlink:href="#m5c846e7edf" x="160.039244" y="56.654539" style="fill: #e74c3c; stroke: #e74c3c"/>
     <use xlink:href="#m5c846e7edf" x="179.45674" y="56.654539" style="fill: #e74c3c; stroke: #e74c3c"/>
     <use xlink:href="#m5c846e7edf" x="198.874236" y="56.654539" style="fill: #e74c3c; stroke: #e74c3c"/>
     <use xlink:href="#m5c846e7edf" x="218.291731" y="56.654539" style="fill: #e74c3c; stroke: #e74c3c"/>
     <use xlink:href="#m5c846e7edf" x="237.709227" y="56.654539" style="fill: #e74c3c; stroke: #e74c3c"/>
     <use xlink:href="#m5c846e7edf" x="257.126723" y="57.243482" style="fill: #e74c3c; stroke: #e74c3c"/>
     <use xlink:href="#m5c846e7edf" x="276.544218" y="57.243482" style="fill: #e74c3c; stroke: #e74c3c"/>
     <use xlink:href="#m5c846e7edf" x="295.961714" y="57.243482" style="fill: #e74c3c; stroke: #e74c3c"/>
     <use xlink:href="#m5c846e7edf" x="315.37921" y="57.243482" style="fill: #e74c3c; stroke: #e74c3c"/>
     <use xlink:href="#m5c846e7edf" x="334.796706" y="57.243482" style="fill: #e74c3c; stroke: #e74c3c"/>
     <use xlink:href="#m5c846e7edf" x="354.214201" y="57.832425" style="fill: #e74c3c; stroke: #e74c3c"/>
     <use xlink:href="#m5c846e7edf" x="373.631697" y="58.421368" style="fill: #e74c3c; stroke: #e74c3c"/>
     <use xlink:href="#m5c846e7edf" x="393.049193" y="59.010311" style="fill: #e74c3c; stroke: #e74c3c"/>
     <use xlink:href="#m5c846e7edf" x="412.466688" y="59.010311" style="fill: #e74c3c; stroke: #e74c3c"/>
     <use xlink:href="#m5c846e7edf" x="565.032726" y="58.421368" style="fill: #e74c3c; stroke: #e74c3c"/>
     <use xlink:href="#m5c846e7edf" x="567.806654" y="59.010311" style="fill: #e74c3c; stroke: #e74c3c"/>
     <use xlink:href="#m5c846e7edf" x="587.22415" y="61.955026" style="fill: #e74c3c; stroke: #e74c3c"/>
     <use xlink:href="#m5c846e7edf" x="606.641646" y="63.132912" style="fill: #e74c3c; stroke: #e74c3c"/>
     <use xlink:href="#m5c846e7edf" x="626.059141" y="66.077626" style="fill: #e74c3c; stroke: #e74c3c"/>
     <use xlink:href="#m5c846e7edf" x="645.476637" y="67.255512" style="fill: #e74c3c; stroke: #e74c3c"/>
     <use xlink:href="#m5c846e7edf" x="662.120205" y="67.255512" style="fill: #e74c3c; stroke: #e74c3c"/>
     <use xlink:href="#m5c846e7edf" x="664.894133" y="67.844455" style="fill: #e74c3c; stroke: #e74c3c"/>
     <use xlink:href="#m5c846e7edf" x="670.441989" y="67.844455" style="fill: #e74c3c; stroke: #e74c3c"/>
    </g>
   </g>
   <g id="line2d_30">
    <path d="M 82.369261 408.253475 
L 85.143189 408.253475 
L 87.917117 112.604119 
L 101.786757 113.193062 
L 104.560685 113.193062 
L 140.621748 114.959891 
L 160.039244 116.726719 
L 179.45674 118.493548 
L 198.874236 119.671434 
L 218.291731 120.260377 
L 237.709227 120.260377 
L 257.126723 121.438263 
L 276.544218 121.438263 
L 295.961714 122.616149 
L 315.37921 123.205092 
L 334.796706 123.794035 
L 354.214201 125.560863 
L 373.631697 126.738749 
L 393.049193 127.916635 
L 412.466688 128.505578 
L 565.032726 132.628179 
L 567.806654 132.628179 
L 587.22415 133.217122 
L 606.641646 133.217122 
L 626.059141 136.161836 
L 645.476637 136.750779 
L 662.120205 137.928665 
L 664.894133 138.517608 
L 670.441989 139.106551 
" clip-path="url(#p32414c24c6)" style="fill: none; stroke: #2ecc71; stroke-width: 1.5; stroke-linecap: square"/>
    <defs>
     <path id="mf1ef137e32" d="M -3 3 
L 3 3 
L 3 -3 
L -3 -3 
z
" style="stroke: #2ecc71; stroke-linejoin: miter"/>
    </defs>
    <g clip-path="url(#p32414c24c6)">
     <use xlink:href="#mf1ef137e32" x="82.369261" y="408.253475" style="fill: #2ecc71; stroke: #2ecc71; stroke-linejoin: miter"/>
     <use xlink:href="#mf1ef137e32" x="85.143189" y="408.253475" style="fill: #2ecc71; stroke: #2ecc71; stroke-linejoin: miter"/>
     <use xlink:href="#mf1ef137e32" x="87.917117" y="112.604119" style="fill: #2ecc71; stroke: #2ecc71; stroke-linejoin: miter"/>
     <use xlink:href="#mf1ef137e32" x="101.786757" y="113.193062" style="fill: #2ecc71; stroke: #2ecc71; stroke-linejoin: miter"/>
     <use xlink:href="#mf1ef137e32" x="104.560685" y="113.193062" style="fill: #2ecc71; stroke: #2ecc71; stroke-linejoin: miter"/>
     <use xlink:href="#mf1ef137e32" x="140.621748" y="114.959891" style="fill: #2ecc71; stroke: #2ecc71; stroke-linejoin: miter"/>
     <use xlink:href="#mf1ef137e32" x="160.039244" y="116.726719" style="fill: #2ecc71; stroke: #2ecc71; stroke-linejoin: miter"/>
     <use xlink:href="#mf1ef137e32" x="179.45674" y="118.493548" style="fill: #2ecc71; stroke: #2ecc71; stroke-linejoin: miter"/>
     <use xlink:href="#mf1ef137e32" x="198.874236" y="119.671434" style="fill: #2ecc71; stroke: #2ecc71; stroke-linejoin: miter"/>
     <use xlink:href="#mf1ef137e32" x="218.291731" y="120.260377" style="fill: #2ecc71; stroke: #2ecc71; stroke-linejoin: miter"/>
     <use xlink:href="#mf1ef137e32" x="237.709227" y="120.260377" style="fill: #2ecc71; stroke: #2ecc71; stroke-linejoin: miter"/>
     <use xlink:href="#mf1ef137e32" x="257.126723" y="121.438263" style="fill: #2ecc71; stroke: #2ecc71; stroke-linejoin: miter"/>
     <use xlink:href="#mf1ef137e32" x="276.544218" y="121.438263" style="fill: #2ecc71; stroke: #2ecc71; stroke-linejoin: miter"/>
     <use xlink:href="#mf1ef137e32" x="295.961714" y="122.616149" style="fill: #2ecc71; stroke: #2ecc71; stroke-linejoin: miter"/>
     <use xlink:href="#mf1ef137e32" x="315.37921" y="123.205092" style="fill: #2ecc71; stroke: #2ecc71; stroke-linejoin: miter"/>
     <use xlink:href="#mf1ef137e32" x="334.796706" y="123.794035" style="fill: #2ecc71; stroke: #2ecc71; stroke-linejoin: miter"/>
     <use xlink:href="#mf1ef137e32" x="354.214201" y="125.560863" style="fill: #2ecc71; stroke: #2ecc71; stroke-linejoin: miter"/>
     <use xlink:href="#mf1ef137e32" x="373.631697" y="126.738749" style="fill: #2ecc71; stroke: #2ecc71; stroke-linejoin: miter"/>
     <use xlink:href="#mf1ef137e32" x="393.049193" y="127.916635" style="fill: #2ecc71; stroke: #2ecc71; stroke-linejoin: miter"/>
     <use xlink:href="#mf1ef137e32" x="412.466688" y="128.505578" style="fill: #2ecc71; stroke: #2ecc71; stroke-linejoin: miter"/>
     <use xlink:href="#mf1ef137e32" x="565.032726" y="132.628179" style="fill: #2ecc71; stroke: #2ecc71; stroke-linejoin: miter"/>
     <use xlink:href="#mf1ef137e32" x="567.806654" y="132.628179" style="fill: #2ecc71; stroke: #2ecc71; stroke-linejoin: miter"/>
     <use xlink:href="#mf1ef137e32" x="587.22415" y="133.217122" style="fill: #2ecc71; stroke: #2ecc71; stroke-linejoin: miter"/>
     <use xlink:href="#mf1ef137e32" x="606.641646" y="133.217122" style="fill: #2ecc71; stroke: #2ecc71; stroke-linejoin: miter"/>
     <use xlink:href="#mf1ef137e32" x="626.059141" y="136.161836" style="fill: #2ecc71; stroke: #2ecc71; stroke-linejoin: miter"/>
     <use xlink:href="#mf1ef137e32" x="645.476637" y="136.750779" style="fill: #2ecc71; stroke: #2ecc71; stroke-linejoin: miter"/>
     <use xlink:href="#mf1ef137e32" x="662.120205" y="137.928665" style="fill: #2ecc71; stroke: #2ecc71; stroke-linejoin: miter"/>
     <use xlink:href="#mf1ef137e32" x="664.894133" y="138.517608" style="fill: #2ecc71; stroke: #2ecc71; stroke-linejoin: miter"/>
     <use xlink:href="#mf1ef137e32" x="670.441989" y="139.106551" style="fill: #2ecc71; stroke: #2ecc71; stroke-linejoin: miter"/>
    </g>
   </g>
   <g id="line2d_31">
    <path d="M 82.369261 55.476654 
L 85.143189 55.476654 
L 87.917117 55.476654 
L 101.786757 56.065596 
L 104.560685 56.065596 
L 140.621748 57.832425 
L 160.039244 59.599254 
L 179.45674 61.366083 
L 198.874236 62.543969 
L 218.291731 63.132912 
L 237.709227 63.132912 
L 257.126723 64.310798 
L 276.544218 64.310798 
L 295.961714 65.488684 
L 315.37921 66.077626 
L 334.796706 66.666569 
L 354.214201 68.433398 
L 373.631697 70.200227 
L 393.049193 71.378113 
L 412.466688 71.967056 
L 565.032726 75.500714 
L 567.806654 75.500714 
L 587.22415 76.089656 
L 606.641646 76.089656 
L 626.059141 79.034371 
L 645.476637 79.623314 
L 662.120205 80.8012 
L 664.894133 81.390143 
L 670.441989 81.979086 
" clip-path="url(#p32414c24c6)" style="fill: none; stroke: #3498db; stroke-width: 1.5; stroke-linecap: square"/>
    <defs>
     <path id="m71d2d4a96a" d="M 0 -3 
L -3 3 
L 3 3 
z
" style="stroke: #3498db; stroke-linejoin: miter"/>
    </defs>
    <g clip-path="url(#p32414c24c6)">
     <use xlink:href="#m71d2d4a96a" x="82.369261" y="55.476654" style="fill: #3498db; stroke: #3498db; stroke-linejoin: miter"/>
     <use xlink:href="#m71d2d4a96a" x="85.143189" y="55.476654" style="fill: #3498db; stroke: #3498db; stroke-linejoin: miter"/>
     <use xlink:href="#m71d2d4a96a" x="87.917117" y="55.476654" style="fill: #3498db; stroke: #3498db; stroke-linejoin: miter"/>
     <use xlink:href="#m71d2d4a96a" x="101.786757" y="56.065596" style="fill: #3498db; stroke: #3498db; stroke-linejoin: miter"/>
     <use xlink:href="#m71d2d4a96a" x="104.560685" y="56.065596" style="fill: #3498db; stroke: #3498db; stroke-linejoin: miter"/>
     <use xlink:href="#m71d2d4a96a" x="140.621748" y="57.832425" style="fill: #3498db; stroke: #3498db; stroke-linejoin: miter"/>
     <use xlink:href="#m71d2d4a96a" x="160.039244" y="59.599254" style="fill: #3498db; stroke: #3498db; stroke-linejoin: miter"/>
     <use xlink:href="#m71d2d4a96a" x="179.45674" y="61.366083" style="fill: #3498db; stroke: #3498db; stroke-linejoin: miter"/>
     <use xlink:href="#m71d2d4a96a" x="198.874236" y="62.543969" style="fill: #3498db; stroke: #3498db; stroke-linejoin: miter"/>
     <use xlink:href="#m71d2d4a96a" x="218.291731" y="63.132912" style="fill: #3498db; stroke: #3498db; stroke-linejoin: miter"/>
     <use xlink:href="#m71d2d4a96a" x="237.709227" y="63.132912" style="fill: #3498db; stroke: #3498db; stroke-linejoin: miter"/>
     <use xlink:href="#m71d2d4a96a" x="257.126723" y="64.310798" style="fill: #3498db; stroke: #3498db; stroke-linejoin: miter"/>
     <use xlink:href="#m71d2d4a96a" x="276.544218" y="64.310798" style="fill: #3498db; stroke: #3498db; stroke-linejoin: miter"/>
     <use xlink:href="#m71d2d4a96a" x="295.961714" y="65.488684" style="fill: #3498db; stroke: #3498db; stroke-linejoin: miter"/>
     <use xlink:href="#m71d2d4a96a" x="315.37921" y="66.077626" style="fill: #3498db; stroke: #3498db; stroke-linejoin: miter"/>
     <use xlink:href="#m71d2d4a96a" x="334.796706" y="66.666569" style="fill: #3498db; stroke: #3498db; stroke-linejoin: miter"/>
     <use xlink:href="#m71d2d4a96a" x="354.214201" y="68.433398" style="fill: #3498db; stroke: #3498db; stroke-linejoin: miter"/>
     <use xlink:href="#m71d2d4a96a" x="373.631697" y="70.200227" style="fill: #3498db; stroke: #3498db; stroke-linejoin: miter"/>
     <use xlink:href="#m71d2d4a96a" x="393.049193" y="71.378113" style="fill: #3498db; stroke: #3498db; stroke-linejoin: miter"/>
     <use xlink:href="#m71d2d4a96a" x="412.466688" y="71.967056" style="fill: #3498db; stroke: #3498db; stroke-linejoin: miter"/>
     <use xlink:href="#m71d2d4a96a" x="565.032726" y="75.500714" style="fill: #3498db; stroke: #3498db; stroke-linejoin: miter"/>
     <use xlink:href="#m71d2d4a96a" x="567.806654" y="75.500714" style="fill: #3498db; stroke: #3498db; stroke-linejoin: miter"/>
     <use xlink:href="#m71d2d4a96a" x="587.22415" y="76.089656" style="fill: #3498db; stroke: #3498db; stroke-linejoin: miter"/>
     <use xlink:href="#m71d2d4a96a" x="606.641646" y="76.089656" style="fill: #3498db; stroke: #3498db; stroke-linejoin: miter"/>
     <use xlink:href="#m71d2d4a96a" x="626.059141" y="79.034371" style="fill: #3498db; stroke: #3498db; stroke-linejoin: miter"/>
     <use xlink:href="#m71d2d4a96a" x="645.476637" y="79.623314" style="fill: #3498db; stroke: #3498db; stroke-linejoin: miter"/>
     <use xlink:href="#m71d2d4a96a" x="662.120205" y="80.8012" style="fill: #3498db; stroke: #3498db; stroke-linejoin: miter"/>
     <use xlink:href="#m71d2d4a96a" x="664.894133" y="81.390143" style="fill: #3498db; stroke: #3498db; stroke-linejoin: miter"/>
     <use xlink:href="#m71d2d4a96a" x="670.441989" y="81.979086" style="fill: #3498db; stroke: #3498db; stroke-linejoin: miter"/>
    </g>
   </g>
   <g id="patch_3">
    <path d="M 52.965625 425.892316 
L 52.965625 37.837812 
" style="fill: none; stroke: #000000; stroke-width: 0.8; stroke-linejoin: miter; stroke-linecap: square"/>
   </g>
   <g id="patch_4">
    <path d="M 699.845625 425.892316 
L 699.845625 37.837812 
" style="fill: none; stroke: #000000; stroke-width: 0.8; stroke-linejoin: miter; stroke-linecap: square"/>
   </g>
   <g id="patch_5">
    <path d="M 52.965625 425.892316 
L 699.845625 425.892316 
" style="fill: none; stroke: #000000; stroke-width: 0.8; stroke-linejoin: miter; stroke-linecap: square"/>
   </g>
   <g id="patch_6">
    <path d="M 52.965625 37.837812 
L 699.845625 37.837812 
" style="fill: none; stroke: #000000; stroke-width: 0.8; stroke-linejoin: miter; stroke-linecap: square"/>
   </g>
   <g id="text_17">
    <!-- Jenkins Plugins Evolution -->
    <g transform="translate(289.355156 17.837812) scale(0.14 -0.14)">
     <defs>
      <path id="DejaVuSans-4a" d="M 628 4666 
L 1259 4666 
L 1259 325 
Q 1259 -519 939 -900 
Q 619 -1281 -91 -1281 
L -331 -1281 
L -331 -750 
L -134 -750 
Q 284 -750 456 -515 
Q 628 -281 628 325 
L 628 4666 
z
" transform="scale(0.015625)"/>
      <path id="DejaVuSans-6b" d="M 581 4863 
L 1159 4863 
L 1159 1991 
L 2875 3500 
L 3609 3500 
L 1753 1863 
L 3688 0 
L 2938 0 
L 1159 1709 
L 1159 0 
L 581 0 
L 581 4863 
z
" transform="scale(0.015625)"/>
      <path id="DejaVuSans-45" d="M 628 4666 
L 3578 4666 
L 3578 4134 
L 1259 4134 
L 1259 2753 
L 3481 2753 
L 3481 2222 
L 1259 2222 
L 1259 531 
L 3634 531 
L 3634 0 
L 628 0 
L 628 4666 
z
" transform="scale(0.015625)"/>
      <path id="DejaVuSans-76" d="M 191 3500 
L 800 3500 
L 1894 563 
L 2988 3500 
L 3597 3500 
L 2284 0 
L 1503 0 
L 191 3500 
z
" transform="scale(0.015625)"/>
     </defs>
     <use xlink:href="#DejaVuSans-4a"/>
     <use xlink:href="#DejaVuSans-65" transform="translate(29.492188 0)"/>
     <use xlink:href="#DejaVuSans-6e" transform="translate(91.015625 0)"/>
     <use xlink:href="#DejaVuSans-6b" transform="translate(154.394531 0)"/>
     <use xlink:href="#DejaVuSans-69" transform="translate(212.304688 0)"/>
     <use xlink:href="#DejaVuSans-6e" transform="translate(240.087891 0)"/>
     <use xlink:href="#DejaVuSans-73" transform="translate(303.466797 0)"/>
     <use xlink:href="#DejaVuSans-20" transform="translate(355.566406 0)"/>
     <use xlink:href="#DejaVuSans-50" transform="translate(387.353516 0)"/>
     <use xlink:href="#DejaVuSans-6c" transform="translate(447.65625 0)"/>
     <use xlink:href="#DejaVuSans-75" transform="translate(475.439453 0)"/>
     <use xlink:href="#DejaVuSans-67" transform="translate(538.818359 0)"/>
     <use xlink:href="#DejaVuSans-69" transform="translate(602.294922 0)"/>
     <use xlink:href="#DejaVuSans-6e" transform="translate(630.078125 0)"/>
     <use xlink:href="#DejaVuSans-73" transform="translate(693.457031 0)"/>
     <use xlink:href="#DejaVuSans-20" transform="translate(745.556641 0)"/>
     <use xlink:href="#DejaVuSans-45" transform="translate(777.34375 0)"/>
     <use xlink:href="#DejaVuSans-76" transform="translate(840.527344 0)"/>
     <use xlink:href="#DejaVuSans-6f" transform="translate(899.707031 0)"/>
     <use xlink:href="#DejaVuSans-6c" transform="translate(960.888672 0)"/>
     <use xlink:href="#DejaVuSans-75" transform="translate(988.671875 0)"/>
     <use xlink:href="#DejaVuSans-74" transform="translate(1052.050781 0)"/>
     <use xlink:href="#DejaVuSans-69" transform="translate(1091.259766 0)"/>
     <use xlink:href="#DejaVuSans-6f" transform="translate(1119.042969 0)"/>
     <use xlink:href="#DejaVuSans-6e" transform="translate(1180.224609 0)"/>
    </g>
   </g>
   <g id="legend_1">
    <g id="patch_7">
     <path d="M 706.845625 255.382252 
L 847.384688 255.382252 
Q 849.384688 255.382252 849.384688 253.382252 
L 849.384688 210.347877 
Q 849.384688 208.347877 847.384688 208.347877 
L 706.845625 208.347877 
Q 704.845625 208.347877 704.845625 210.347877 
L 704.845625 253.382252 
Q 704.845625 255.382252 706.845625 255.382252 
z
" style="fill: #ffffff; opacity: 0.8; stroke: #cccccc; stroke-linejoin: miter"/>
    </g>
    <g id="line2d_32">
     <path d="M 708.845625 216.446314 
L 718.845625 216.446314 
L 728.845625 216.446314 
" style="fill: none; stroke: #e74c3c; stroke-width: 1.5; stroke-linecap: square"/>
     <g>
      <use xlink:href="#m5c846e7edf" x="718.845625" y="216.446314" style="fill: #e74c3c; stroke: #e74c3c"/>
     </g>
    </g>
    <g id="text_18">
     <!-- Without Jenkinsfile -->
     <g transform="translate(736.845625 219.946314) scale(0.1 -0.1)">
      <defs>
       <path id="DejaVuSans-57" d="M 213 4666 
L 850 4666 
L 1831 722 
L 2809 4666 
L 3519 4666 
L 4500 722 
L 5478 4666 
L 6119 4666 
L 4947 0 
L 4153 0 
L 3169 4050 
L 2175 0 
L 1381 0 
L 213 4666 
z
" transform="scale(0.015625)"/>
       <path id="DejaVuSans-68" d="M 3513 2113 
L 3513 0 
L 2938 0 
L 2938 2094 
Q 2938 2591 2744 2837 
Q 2550 3084 2163 3084 
Q 1697 3084 1428 2787 
Q 1159 2491 1159 1978 
L 1159 0 
L 581 0 
L 581 4863 
L 1159 4863 
L 1159 2956 
Q 1366 3272 1645 3428 
Q 1925 3584 2291 3584 
Q 2894 3584 3203 3211 
Q 3513 2838 3513 2113 
z
" transform="scale(0.015625)"/>
      </defs>
      <use xlink:href="#DejaVuSans-57"/>
      <use xlink:href="#DejaVuSans-69" transform="translate(96.626953 0)"/>
      <use xlink:href="#DejaVuSans-74" transform="translate(124.410156 0)"/>
      <use xlink:href="#DejaVuSans-68" transform="translate(163.619141 0)"/>
      <use xlink:href="#DejaVuSans-6f" transform="translate(226.998047 0)"/>
      <use xlink:href="#DejaVuSans-75" transform="translate(288.179688 0)"/>
      <use xlink:href="#DejaVuSans-74" transform="translate(351.558594 0)"/>
      <use xlink:href="#DejaVuSans-20" transform="translate(390.767578 0)"/>
      <use xlink:href="#DejaVuSans-4a" transform="translate(422.554688 0)"/>
      <use xlink:href="#DejaVuSans-65" transform="translate(452.046875 0)"/>
      <use xlink:href="#DejaVuSans-6e" transform="translate(513.570312 0)"/>
      <use xlink:href="#DejaVuSans-6b" transform="translate(576.949219 0)"/>
      <use xlink:href="#DejaVuSans-69" transform="translate(634.859375 0)"/>
      <use xlink:href="#DejaVuSans-6e" transform="translate(662.642578 0)"/>
      <use xlink:href="#DejaVuSans-73" transform="translate(726.021484 0)"/>
      <use xlink:href="#DejaVuSans-66" transform="translate(778.121094 0)"/>
      <use xlink:href="#DejaVuSans-69" transform="translate(813.326172 0)"/>
      <use xlink:href="#DejaVuSans-6c" transform="translate(841.109375 0)"/>
      <use xlink:href="#DejaVuSans-65" transform="translate(868.892578 0)"/>
     </g>
    </g>
    <g id="line2d_33">
     <path d="M 708.845625 231.124439 
L 718.845625 231.124439 
L 728.845625 231.124439 
" style="fill: none; stroke: #2ecc71; stroke-width: 1.5; stroke-linecap: square"/>
     <g>
      <use xlink:href="#mf1ef137e32" x="718.845625" y="231.124439" style="fill: #2ecc71; stroke: #2ecc71; stroke-linejoin: miter"/>
     </g>
    </g>
    <g id="text_19">
     <!-- With Java 8 -->
     <g transform="translate(736.845625 234.624439) scale(0.1 -0.1)">
      <use xlink:href="#DejaVuSans-57"/>
      <use xlink:href="#DejaVuSans-69" transform="translate(96.626953 0)"/>
      <use xlink:href="#DejaVuSans-74" transform="translate(124.410156 0)"/>
      <use xlink:href="#DejaVuSans-68" transform="translate(163.619141 0)"/>
      <use xlink:href="#DejaVuSans-20" transform="translate(226.998047 0)"/>
      <use xlink:href="#DejaVuSans-4a" transform="translate(258.785156 0)"/>
      <use xlink:href="#DejaVuSans-61" transform="translate(288.277344 0)"/>
      <use xlink:href="#DejaVuSans-76" transform="translate(349.556641 0)"/>
      <use xlink:href="#DejaVuSans-61" transform="translate(408.736328 0)"/>
      <use xlink:href="#DejaVuSans-20" transform="translate(470.015625 0)"/>
      <use xlink:href="#DejaVuSans-38" transform="translate(501.802734 0)"/>
     </g>
    </g>
    <g id="line2d_34">
     <path d="M 708.845625 245.802564 
L 718.845625 245.802564 
L 728.845625 245.802564 
" style="fill: none; stroke: #3498db; stroke-width: 1.5; stroke-linecap: square"/>
     <g>
      <use xlink:href="#m71d2d4a96a" x="718.845625" y="245.802564" style="fill: #3498db; stroke: #3498db; stroke-linejoin: miter"/>
     </g>
    </g>
    <g id="text_20">
     <!-- Without Java Versions -->
     <g transform="translate(736.845625 249.302564) scale(0.1 -0.1)">
      <defs>
       <path id="DejaVuSans-56" d="M 1831 0 
L 50 4666 
L 709 4666 
L 2188 738 
L 3669 4666 
L 4325 4666 
L 2547 0 
L 1831 0 
z
" transform="scale(0.015625)"/>
      </defs>
      <use xlink:href="#DejaVuSans-57"/>
      <use xlink:href="#DejaVuSans-69" transform="translate(96.626953 0)"/>
      <use xlink:href="#DejaVuSans-74" transform="translate(124.410156 0)"/>
      <use xlink:href="#DejaVuSans-68" transform="translate(163.619141 0)"/>
      <use xlink:href="#DejaVuSans-6f" transform="translate(226.998047 0)"/>
      <use xlink:href="#DejaVuSans-75" transform="translate(288.179688 0)"/>
      <use xlink:href="#DejaVuSans-74" transform="translate(351.558594 0)"/>
      <use xlink:href="#DejaVuSans-20" transform="translate(390.767578 0)"/>
      <use xlink:href="#DejaVuSans-4a" transform="translate(422.554688 0)"/>
      <use xlink:href="#DejaVuSans-61" transform="translate(452.046875 0)"/>
      <use xlink:href="#DejaVuSans-76" transform="translate(513.326172 0)"/>
      <use xlink:href="#DejaVuSans-61" transform="translate(572.505859 0)"/>
      <use xlink:href="#DejaVuSans-20" transform="translate(633.785156 0)"/>
      <use xlink:href="#DejaVuSans-56" transform="translate(665.572266 0)"/>
      <use xlink:href="#DejaVuSans-65" transform="translate(726.230469 0)"/>
      <use xlink:href="#DejaVuSans-72" transform="translate(787.753906 0)"/>
      <use xlink:href="#DejaVuSans-73" transform="translate(828.867188 0)"/>
      <use xlink:href="#DejaVuSans-69" transform="translate(880.966797 0)"/>
      <use xlink:href="#DejaVuSans-6f" transform="translate(908.75 0)"/>
      <use xlink:href="#DejaVuSans-6e" transform="translate(969.931641 0)"/>
      <use xlink:href="#DejaVuSans-73" transform="translate(1033.310547 0)"/>
     </g>
    </g>
   </g>
  </g>
 </g>
 <defs>
  <clipPath id="p32414c24c6">
   <rect x="52.965625" y="37.837812" width="646.88" height="388.054503"/>
  </clipPath>
 </defs>
</svg>
